<?xml version="1.0" encoding="utf-8"?>
<!-- Generator: Adobe Illustrator 23.0.6, SVG Export Plug-In . SVG Version: 6.00 Build 0)  -->
<svg version="1.1" id="Layer_1" xmlns="http://www.w3.org/2000/svg" xmlns:xlink="http://www.w3.org/1999/xlink" x="0px" y="0px"
	 viewBox="0 0 1802 1800" style="enable-background:new 0 0 1802 1800;" xml:space="preserve">
<style type="text/css">
	.st0{fill:#D48888;}
	.st1{fill-rule:evenodd;clip-rule:evenodd;fill:#86243F;}
	.st2{fill:#252F64;}
	.st3{fill:#D2E7E3;}
	.st4{fill:#E8B149;}
</style>
<g id="svgg_1_">
	<g>
		<path class="st0" d="M1703.3,347.3c-109.9-138-302.7-174.8-430.7-82c-100.3,72.7-131,203.5-86.6,323.1c-81-48.2-176.1-76-277.8-76
			c-19.8,0-39.4,1.1-58.7,3.1c16.2,12.7,17.4,18,17.9,20.1c0.5,2.4,0.4,4.7-0.3,6.8c-5,15-25.5,18.2-59.6,23.6
			c-15.9,2.5-34,5.4-54.8,10c-11.3,2.5-41.5,9.7-77.5,22.9c-16.5,6.1-32.8,12.9-48.6,20.3c-14.9,58.7-29.3,101.8-42.8,128.3
			c-12.4,24.4-24.4,35.8-37.6,35.8c0,0,0,0,0,0c-0.3,0-0.6,0-0.9,0c-15.7-0.7-28.8-18.1-39.6-35c-14.1-22.1-25.3-48.2-30.2-69.8
			c0-0.2-0.1-0.4-0.1-0.6l-10.9-75c-7.3-2.4-14.5-5.3-21.6-8.7l-10.7,0.6c-0.1,0-0.3,0-0.4,0c-2.4,0-4.8-1.1-6.3-3.1
			c-1.6-2.1-2.1-4.8-1.4-7.3l3.9-13c0-0.1,0.1-0.2,0.1-0.3c5.7-16.7,21.8-32.4,38.4-37.5c0,0,0.1,0,0.1,0c3.6-1,8.9-1.6,16.1-1.6
			c5.7,0,12.1,0.3,18.8,0.9c-0.9-0.5-1.9-1.1-2.8-1.6c-32.7-18.9-35.8-21.2-56.1-42.1c-11.5-12.1-24.5-27-29.5-33.3
			c-0.1-0.1-0.1-0.2-0.2-0.2l-8.2-11.3c-1.9-2.6-2-6.1-0.4-8.9c1.5-2.4,4.1-3.8,6.8-3.8c0.4,0,0.8,0,1.2,0.1l10.4,1.6
			c6.7,1,24.3,5,38.7,9.2c18.1,5,42.8,15.8,62.9,27.4c-5.1-8.9-8.9-16.8-10-21.9c-2.2-10.4-1.2-22.3,2.5-33
			c-0.9-1.4-1.6-2.8-2.1-4.3c-2.4-6.9-0.7-13.1,0-15.4c2.7-9.4,10.9-17.7,24.4-24.5c6.5-3.3,14.4-6.3,22.3-8.4
			c12.5-3.4,30.5-7.5,50.1-11c-14.1-26.9-33.1-51.5-57-72.7C435.7,173.8,240,194.5,118.1,325.3C-4.2,456-6.8,647.1,112.1,752.2
			c87,76.9,214.7,86.3,324.8,34.8c-41.9,75.2-65.7,161.4-65.7,253.1c0,291.5,240.4,527.7,537,527.7c296.6,0,537-236.3,537-527.7
			c0-90.3-23.1-175.4-63.8-249.7c96.9,40.5,206.6,34.7,289.2-25.2C1798.5,672.4,1813.2,485.2,1703.3,347.3z"/>
		<path class="st1" d="M1392,1269c0.6-0.2,1.3-0.4,1.9-0.6l-2.1,6.2c-15.8,28.7-30.7,50.4-41.8,65.4c-11.1,15.1-33,43-33,43l0,0
			c-39.6,5.9-92.6,13-155.4,18.5c-163.2,14.4-286.7,8.5-313.4,8.5c0,0-30.2-1.6-362.8-46.1l0.1,0c0,0,0,0-0.1,0c0,0,0,0,0.1,0
			c-12.8-14.8-22.2-28-28.5-37.6c0,0-8.2-12.4-33.4-58.8c0,0-0.1-0.2-0.3-0.5c30.5,3,51.5,5.2,70.5,7.3c14.8,1.7,19.7,2.3,60.3,7.1
			c47.2,5.6,86.7,10.3,112.9,13.4l0,0l0,0l0,0c25.5,1.9,87.8,6.5,95,7c281.3,20.5,465-7,465-7c49.3-7.4,166.9-27.6,167-27
			C1394,1268.1,1392,1269,1392,1269L1392,1269z M1447.6,1047.9c0,5.4-0.4,7.2-3.1,28.5c-1.6,12.5-2.8,22.5-3.5,28.5
			c-14.7,3-29.3,6-44,9l0,0l0,0c-0.2-0.3-0.2-0.3-0.2-0.3c-0.5-0.6-60.7,13.1-61.6,13.3c-0.6,0.1-0.9,0.2-0.9,0.2
			c-0.3,0.1-36.1,6.8-60.7,11c-10.7,1.9-37.7,7-71.7,11c-56.3,6.7-95.2,10.7-115,12c-8.6,0.5-26,1.8-38.6,2.8
			c-40.4,3.1-189.7,4.4-241.8,2c-96.9-4.5-193.6-14.8-193.7-14.8c0,0-21.4-1.6-44.5-4.5c-12.2-1.6-27.5-3.9-27.5-3.9
			c0,0-82.8-12.5-82.8-12.5c-40.9-7.9-47.2-8.6-47.3-8.6c0,0,0,0,0,0c-24.1-2.8-33.3-4.8-33.7-3.6c0,0.1,0,0.3,0.1,0.3
			c0.5-0.1-13.9-56.3-4.3-119.1c0,0,0-0.1,0-0.1c0,0,26.2,4.7,50.9,9.6c16.1,3.2,26.3,5.6,33,7c25.3,5,51.8,9.3,90.4,14.8
			c47.5,6.8,102.3,12.9,159.5,17.7c15.4,1.3,21.6,2.2,25-0.2c5.7-4.1,6.3-11.9,6.5-14c1.6-13.1,14-48.6,52.7-134.8
			c-0.5-0.3-0.9-0.7-1.4-1c-5.5-3.6-12.1-8.6-19.2-14.4l0,0l-0.1-0.1c-13.6-11.1-29.4-25.4-44.8-40.5l-0.2-0.2l-0.1-0.1
			c-17.3-17-34-34.9-46.5-50.3c-4.7-5.8-9.4-11.8-14-17.7l-0.1-0.1l-0.1-0.1c-19-24.7-35.8-49.2-45.7-66.3l-0.1-0.2
			c-4.8-8.1-9.7-16.1-14.5-24.2c3-14.3,6-28.7,9-43l0,0l0,0c1-3.7,2-7.3,3-11c1.3-5.3,2.7-10.7,4-16l0,0c41.2-20.2,52-23,52-23
			c13.2-3.4,31-5.8,32-6l0,0l0,0l0,0l0,0l0,0l0,0l0,0c38.8,47.5,77.5,95,116.3,142.4c7.4,8.5,16.4,19.1,16.4,19.6l4.5,4.9
			c0,0,0,0,0.1,0.1c0.6,0.5,1.1,1.1,1.5,1.7l15.6,16.8l49.1,11.9v0c4-8.1,13.2-17.3,38.2-43.3c5.8-6.1,14-14.6,21.6-22.5l44.2-47.1
			c2.2-3.9,4.8-6.5,6.9-7.4l36.3-40.6c1.1-1.4,2.4-2.9,4-4.6c0.9-1,1.9-2.1,3-3.2c17.6-20.3,35.2-40.6,52.9-61
			c-1-0.4-1.5-0.6-1.5-0.6c0,0.1,21.2,9.4,40.7,18.5c0,0,65.8,30.8,82.9,54.1c0.1,0.1,3.8,5.2,3.8,5.2c-6.5,7.6-13,15.3-19.5,22.9
			l-0.1,0.2l-0.1,0.2c-12.4,16.1-35.1,41.8-60.4,67.8c-4.1,4.2-9.4,9.9-14.1,15.2l-0.4,0.5c-2.4,2.8-4.9,5.5-7.3,8.3
			c-25.2,28.5-51,55.3-76.9,80.5l-7.4,9.5l-8.8,8.1l-0.1-1l-9.6,10.3c-1.3,2.3-27.1,28.5-49.3,50.7l0,0c-16.8,16.7-31.5,31-32.3,31
			l-1.5,2.1c0,0.3-0.1,0.4-0.1,0.4c0,0,0.1-0.4,0.1-0.4c-0.2-0.1-2.1,2.8-4.3,6.1L912.1,994c-2.6,6-6.7,14.6-13.5,28.5
			c-6.7,13.8-12.2,26.9-12.2,29.2v4.2l62.1-1.2c95.5-1.8,204.7-6.3,251.5-10.4c77.4-6.7,102.9-9.1,117.7-11
			c14.2-1.8,8.4-1.1,37.7-4.6c60.5-7.2,89.7-10.1,89.6-12.8c0-0.3-0.3-0.5-0.4-0.5C1443.5,1015.7,1447.5,1030.9,1447.6,1047.9z"/>
		<path class="st2" d="M377.1,1118.3c-0.1-0.1-0.1-0.2-0.1-0.3c0.6-2.9,55.2,5.3,163.8,24.7c42.5,4.6,85.1,9.1,127.6,13.7
			l177.8,10.7c59.3-0.7,118.6-1.5,177.8-2.2c26.7-1.7,53.4-3.4,80.1-5.2l181-23.6l129.6-26.7l21.2-4.5c1.7,0,3.4,0,5.1,0
			c-1.3,9-2.6,18-4,27l-14.8,61.1l-28.3,75.3l-87.1,16.9l-115.2,14.4l-118.6,9.1h-99.9l-145.7-1.1l-191.5-15.5l-67.5-8.7l-56.1-7
			l-89-9.4l-12.7-28.3l-22.4-66.5L377.1,1118.3z"/>
		<path class="st3" d="M793.8,490.5c-11.6-4.8-26.5-12.4-34.2-16.5c-7.3-3.9-22-8.1-36-9.5c-29.4-2.8-54.6,11.9-67.9,21.5
			c7.7-23.1,21.4-54.8,47.2-86c18.5-22.4,29.7-28.2,27.4-36.6c-7.1-26-125-4.8-167,6.8c-5.4,1.5-36.3,10.3-41.1,27.4
			c-0.5,1.9-1.7,6.1-0.1,10.6c3.3,9.2,16.4,14.7,16.8,14.9c43.1,34.2,49.6,40.6,49.6,40.6c11.8,11.6,27,30.1,39.6,58.8
			c-1.2,4.7-2.4,9.7-3.8,15.5c-4.2,17.4-6.3,26.5-6.2,38.7c0,1,0,3.1,0.2,5.8c-4.1,1.5-7.1,3.3-7.4,3.4
			c-53.1,14.4-62.1,15.9-62.1,15.9c-17.5,2.8-43.5,4.1-77.3-4.4c3.9,26.5,7.7,52.9,11.6,79.4c5,22.3,16.7,47.8,29.1,67.3
			c11.6,18.3,22.4,30.9,33.2,31.3c16.4,0.7,40.6-28.3,74.2-161.7c12.1-5.8,30.2-13.9,52.7-22.2c39.6-14.5,72-21.8,78.5-23.2
			c62.3-13.7,103.4-12.7,108.6-28.3c0.3-0.8,0.3-1.6,0.1-2.6C857.7,528.8,818.4,501.4,793.8,490.5z"/>
		<path class="st4" d="M533.7,400.9c-9.8,10.7-15,30.1-11.7,45.5c2.3,10.4,20.4,39.9,36,58.7c1.7,2.3,3.1,3.9,4.2,5.1
			c4.1,3.3,7.7,6.4,11.1,10.1c-1.9-1.7-3.9-2.9-6.2-4.5c-5.8-4.7-13.6-12-17.1-16.5c-12.2-15.1-58.9-40-91.1-48.9
			c-14.7-4.3-31.8-8.2-37.7-9l-10.4-1.6l8.2,11.3c4.8,6.1,17.7,20.8,29,32.7c19.6,20.2,22.1,22.1,54.4,40.8
			c18.8,10.8,37.6,20.8,42,23c4.5,1.6,0.3,1.3-8.8-1.1c-23.4-5.4-57-7.9-67.1-5c-14.3,4.4-28.4,18.5-33.2,32.4l-3.9,13l12.7-0.7
			c22.1,10.9,41.3,14.8,54.1,16.4c36,4.4,66.7-4.1,81.9-8.3c0,0,0.6-0.2,38.1-11.6l0,0l0,0l0,0c0.1-0.4,10.3-40.3,10.3-40.3l0,0
			c0-0.1-10.4,40.3-10.3,40.3c0,0,8.2-24.5,10.3-40.3c4.1-30.7-8.5-75.4-79.5-137.9l-5.4-11.9L533.7,400.9z"/>
	</g>
</g>
</svg>
