<?xml version="1.0" encoding="UTF-8" standalone="no"?>
<!DOCTYPE svg PUBLIC "-//W3C//DTD SVG 1.1//EN" "http://www.w3.org/Graphics/SVG/1.1/DTD/svg11.dtd">
<svg version="1.1" xmlns="http://www.w3.org/2000/svg" xmlns:xlink="http://www.w3.org/1999/xlink" preserveAspectRatio="xMidYMid meet" viewBox="0 0 640 640" width="640" height="640"><defs><path d="M451.98 94.58C416.36 120.4 405.45 166.85 421.22 209.33C392.45 192.21 358.68 182.34 322.56 182.34C315.52 182.34 308.56 182.73 301.71 183.44C307.46 187.95 307.89 189.83 308.07 190.58C308.24 191.43 308.21 192.25 307.96 192.99C306.18 198.32 298.9 199.46 286.79 201.38C281.15 202.26 274.72 203.29 267.33 204.93C263.32 205.82 252.59 208.37 239.8 213.06C233.94 215.23 228.16 217.64 222.54 220.27C217.25 241.12 212.14 256.43 207.34 265.84C202.94 274.5 198.68 278.55 193.99 278.55C193.99 278.55 193.99 278.55 193.99 278.55C193.88 278.55 193.78 278.55 193.67 278.55C188.09 278.3 183.44 272.12 179.6 266.12C174.6 258.27 170.62 249 168.88 241.33C168.88 241.26 168.84 241.19 168.84 241.12C168.46 238.46 165.36 217.15 164.97 214.48C162.38 213.63 159.82 212.6 157.3 211.39C156.92 211.41 153.88 211.58 153.5 211.6C153.47 211.6 153.39 211.6 153.36 211.6C152.51 211.6 151.65 211.21 151.12 210.5C150.55 209.76 150.38 208.8 150.62 207.91C150.76 207.45 151.87 203.76 152.01 203.29C152.01 203.26 152.04 203.22 152.04 203.19C154.07 197.26 159.79 191.68 165.68 189.87C165.68 189.87 165.72 189.87 165.72 189.87C167 189.51 168.88 192.99 171.44 192.99C173.46 192.99 191.61 196.6 193.99 196.82C193.67 196.64 194.31 193.17 193.99 192.99C182.38 186.28 164.4 181.52 157.19 174.1C153.11 169.8 148.49 164.51 146.72 162.27C146.68 162.24 146.68 162.2 146.65 162.2C146.35 161.8 144.02 158.59 143.73 158.19C143.06 157.27 143.02 156.02 143.59 155.03C144.12 154.18 145.05 153.68 146.01 153.68C146.15 153.68 146.29 153.68 146.43 153.71C146.8 153.77 149.76 154.23 150.13 154.28C152.51 154.64 158.76 156.06 163.87 157.55C170.3 159.33 202.26 188.87 209.4 192.99C207.59 189.83 183.05 161.31 182.66 159.5C181.88 155.81 182.23 151.58 183.55 147.78C183.23 147.29 182.98 146.79 182.8 146.26C181.95 143.8 182.55 141.6 182.8 140.79C183.76 137.45 186.67 134.5 191.47 132.08C193.78 130.91 196.58 129.85 199.39 129.1C203.83 127.89 210.22 126.44 217.18 125.19C212.17 115.64 205.43 106.9 196.94 99.37C154.74 62.08 85.24 69.43 41.94 115.89C-1.49 162.31 -2.42 230.18 39.81 267.51C70.71 294.82 116.07 298.16 155.17 279.87C140.29 306.57 131.84 337.19 131.84 369.76C131.84 473.29 217.22 557.18 322.56 557.18C427.9 557.18 513.28 473.25 513.28 369.76C513.28 337.69 505.07 307.46 490.62 281.07C525.03 295.46 564 293.4 593.33 272.12C638.76 239.17 643.98 172.68 604.95 123.7C565.91 74.69 497.44 61.62 451.98 94.58Z" id="a24Ecivakg"></path><path d="M275.31 168.57C272.52 167.13 266.9 165.59 261.55 165.07C250.32 164.04 240.69 169.45 235.61 172.99C238.56 164.48 243.79 152.81 253.65 141.32C260.71 133.07 264.99 126.39 264.11 123.3C261.4 113.72 210.82 126.08 194.77 130.35C192.71 130.9 186.44 134.14 184.61 140.44C184.42 141.14 182.6 142.68 183.21 144.34C184.47 147.73 190.84 149.75 190.99 149.83C207.46 162.42 209.94 164.78 209.94 164.78C214.45 169.05 218.65 174.26 223.46 184.83C223.01 186.56 224 190 223.46 192.13C221.86 198.54 218.81 198.8 218.85 203.29C218.85 203.66 215.22 207.53 215.3 208.52C213.73 209.07 215.41 208.48 215.3 208.52C195.01 213.82 197.17 211.83 197.17 211.83C190.49 212.87 178.15 214.96 165.24 211.83C166.73 221.59 167.27 233.49 168.76 243.24C170.67 251.45 176.05 260.84 180.79 268.02C185.22 274.76 189.35 279.4 193.47 279.55C199.74 279.81 210.63 269.13 223.46 220.01C228.09 217.87 234.27 214.89 242.86 211.83C257.99 206.5 278.1 203.81 280.58 203.29C304.38 198.25 306 199.52 307.98 193.78C308.1 193.49 309.46 192.28 309.38 191.91C308.7 188.75 297.77 178.66 288.37 174.64C283.94 172.88 278.25 170.08 275.31 168.57Z" id="a1IKSdZ0O"></path><path d="M179.51 151.85C180.45 156.12 187.87 168.21 194.27 175.92C194.97 176.87 195.54 177.52 195.99 178.02C197.67 179.37 199.15 180.64 200.54 182.16C199.77 181.46 198.95 180.97 198 180.31C195.62 178.38 192.42 175.39 190.99 173.55C185.99 167.35 166.84 157.14 153.63 153.49C147.6 151.73 140.59 150.13 138.17 149.8C137.89 149.76 136.47 149.54 133.91 149.15C135.92 151.93 137.04 153.47 137.27 153.78C139.24 156.28 144.53 162.31 149.16 167.19C157.2 175.47 158.22 176.25 171.47 183.92C179.18 188.35 186.89 192.45 188.69 193.35C190.54 194.01 188.82 193.89 185.08 192.9C175.49 190.69 161.71 189.66 157.57 190.85C151.7 192.66 145.92 198.44 143.95 204.14C143.85 204.49 143.31 206.27 142.35 209.47C145.48 209.3 147.21 209.2 147.56 209.18C156.62 213.65 164.5 215.25 169.75 215.91C184.51 217.71 197.1 214.23 203.33 212.5C203.33 212.5 203.58 212.42 218.96 207.75C218.96 207.75 218.96 207.75 218.96 207.75L218.96 207.75C218.96 207.75 218.96 207.75 218.96 207.75C219 207.58 223.18 191.22 223.18 191.22C223.18 191.22 223.18 191.22 223.18 191.22C223.18 191.18 218.92 207.75 218.96 207.75C218.96 207.75 222.32 197.7 223.18 191.22C224.86 178.63 219.69 160.3 190.58 134.67C190.43 134.34 189.69 132.72 188.36 129.79L184.31 133.19C180.2 141.42 178.61 147.64 179.51 151.85Z" id="a6kwgBuOf"></path></defs><g><g><g><use xlink:href="#a24Ecivakg" opacity="1" fill="#e5e3f0" fill-opacity="0.71"></use><g><use xlink:href="#a24Ecivakg" opacity="1" fill-opacity="0" stroke="#000000" stroke-width="1" stroke-opacity="0"></use></g></g><g><use xlink:href="#a1IKSdZ0O" opacity="1" fill="#d4d1dc" fill-opacity="0.59"></use><g><use xlink:href="#a1IKSdZ0O" opacity="1" fill-opacity="0" stroke="#000000" stroke-width="1" stroke-opacity="0"></use></g></g><g><use xlink:href="#a6kwgBuOf" opacity="1" fill="#d3cee6" fill-opacity="1"></use><g><use xlink:href="#a6kwgBuOf" opacity="1" fill-opacity="0" stroke="#3f3f3f" stroke-width="1" stroke-opacity="0"></use></g></g></g></g></svg>