<?xml version="1.0" encoding="utf-8"?>
<!-- Generator: Adobe Illustrator 22.0.1, SVG Export Plug-In . SVG Version: 6.00 Build 0)  -->
<svg version="1.0" id="Layer_1" xmlns="http://www.w3.org/2000/svg" xmlns:xlink="http://www.w3.org/1999/xlink" x="0px" y="0px"
	 viewBox="0 0 720 720" style="enable-background:new 0 0 720 720;" xml:space="preserve">
<style type="text/css">
	.st0{fill:#3F2202;}
	.st1{fill:#FF9808;}
	.st2{fill:#F8AC57;}
	.st3{fill:#E94F43;}
	.st4{fill:#E8770D;}
	.st5{fill:#BE5409;}
</style>
<path class="st0" d="M676.4,181.4c-15.5-40.8-48.5-75.4-88.7-92.3C548.8,72.9,500.5,71,466.9,99.9c-20.2,17.4-29.4,44-31.8,70
	c0-0.3,0-0.1-0.1,0.5c-2.3-2.3-3.2-6.2-5-8.8c-2.4-3.5-5.5-6.6-8.8-9.2c-7.4-5.9-16.3-9.2-25.6-10.8c-3.5-0.6-8.3-0.2-11.5-1.7
	c-3.4-1.5-5.2-4.8-8.7-6.5c-4.6-2.2-9.5-2.2-14.5-1.9s-5.6,0-8.8-4c-4.5-5.7-11.7-14.4-19.9-13.5c-3.9,0.4-6.2,3.1-8.9,5.6
	c-3.3,3.1-4.8,3.1-9.2,4.2c-8.7,2-9.1,12.8-13,19.8c-4.8,8.5-10.6,16.8-17.6,23.5c-3.3-29.5-15.8-57.8-41.3-74.4
	c-25.9-16.9-57.6-18-87-11.2C73.4,100.3,0.6,201.3,48,281.8c21.7,36.9,62.8,48.3,103.6,46.5c-4.3,20-2.4,39.7-2.3,59.9
	c0.1,15.7-0.8,31.4-3.7,46.8c-1.3,7.2-3.4,12.2-7.1,18.6c-1.3,2.2-2.5,4.5-3.7,6.8c-0.2,0.5-0.5,0.9-0.7,1.4c-2,1.7-2.1,2.8-0.3,3.5
	c0.3,3,1.2,7,1.9,10.1c1.5,6.5,4.7,12.4,9.9,16.6c6,5,14.6,4.9,20,10c6.5,6.1,11.4,13.7,18.2,19.8c8.9,7.9,17.9,15.6,26.9,23.3
	c13.3,11.5,25.9,23.2,34.6,38.7c3.8,6.8,6.8,13.9,8.9,21.4c1,3.7,1.8,7.4,2.4,11.1c0.6,3.9-0.2,10.4,1.3,14
	c2.4,5.6,5.3,0.5,10.3,1.2c3.4,0.5,5.4,3.7,8,5.7c4.7,3.6,9,4.2,14.2,6.1c7,2.5,12.6,7.1,20.1,9c8.2,2,16.8,2.6,25.2,3.2
	c16.4,1.1,32.8,1.3,49.3,0.9c23.1-0.5,49.1,0.8,66.8-16.7c16.6-16.4,19.2-38.5,27.7-59.1c3.5-8.6,14.3-12.8,21.8-17.6
	c9.2-6,18.4-12.1,27.2-18.6c14.2-10.6,28.1-22.3,37-37.9c4.4-7.7,12.9-10.5,18.3-17.6c4.8-6.3,7.2-14,7.7-21.9
	c0.1-1.9,0.2-3.9,0.2-5.8c0-3.5,0.6-3.3-1.3-7c-1.4-2.6-2.4-5.3-3.6-8.1c-3.4-7.9-7.5-15.5-10.9-23.4c-6.3-14.8-8.8-31.4-7.4-47.5
	c1.4-16.3-0.2-30.7-4.1-46.8c35,2.1,73.7-4.8,97.3-33C689,262.6,691.1,220,676.4,181.4z"/>
<path class="st1" d="M550,88.2c-31.8-5.6-65,4-86.3,28.9c-9.8,11.4-16.6,25.1-21.1,39.4c-2.5,8.2-3.8,16.5-5.4,24.9
	c-0.5,2.8-0.6,4.4-2.9,5.6c0-1.2-13.1-6.1-15.5-4.9c5.1,4,9.9,8.2,12.5,14.3c-0.2-0.1-0.2,0,0,0.2c-7.3-2.3-14.7-4-22.3-5.2
	c-4.3-0.7-10.9-2.6-6.2,2.7c6.8,7.6,24.3,18.8,20.3,31.5c-6.6-3.3-13.1-6.6-19.7-10c4.3,6.8,9.5,13,9.1,21.2
	c-8.9-12.8-20.4-23.4-33.8-31.3c0.8,0.3,0.8,0.2,0-0.2c13.6,3.6,28.3,4.8,39.8,13.8c-6.3-9.3-14.2-17.3-23.5-23.7
	c-5.4-3.7-8.7-5.5-15.3-5c-5.8,0.5-11.6,1.2-17.4,1.8c0.4-0.2,0.4-0.3,0-0.2c16.2-13.3,44.1-8.2,61.6-1.1
	c-13.4-8.3-28.3-14.1-43.9-16.6c-7.5-1.2-15.1-1.7-22.6-1.4c-3.9,0.1-7.8,0.4-11.6,0.9c-3.4,0.4-7.3,0.9-7.4,0.9
	c27.9-9.9,57.3-4.8,85.3,1.6c-4.1-18-26.1-23.4-41.9-24.2c-19.7-1-36.4,7-53.6,15.6c0.3-0.4,0.3-0.4,0-0.2c4.7-7.4,20.1-12,28-14.8
	c2.2-0.8,13.5-2.5,14.7-4.7c2.6-4.8-5.1-5.2-8-5.3c-21.2-0.9-38.1,16-51,30.4c0.4-0.6,0.4-0.7,0-0.2c4.3-8.4,10.9-15.6,18.2-21.4
	c4-3.1,19.7-8.7,15.4-14.6c-2.7-3.7-3.9-1.2-6.2,1c-3.4,3.2-6.6,6.6-9.9,9.9c-3.3,3.2-6.6,6.5-9.7,9.9c-2.3,2.6-6.7,10.6-9.8,11.2
	c2.8-8,8.7-14.9,14.6-21.1c3.7-3.9,18.4-13.4,12.3-20c-6.3-6.8-13.7,12.3-16.2,16.3c-3,5-6,9.9-9,14.9c-0.8,1.3-5,9.1-5.6,7
	c-0.6-2.2,5.4-10.8,6.5-13.1c2.1-4.1,5.7-8.8,6.8-13.2c0.7-2.6,0.9-7.2-3.1-5.2c-1.6,0.8-3.2,9.4-4,11.2
	c-6.3,15.7-16.1,31-28.7,41.3c0-1.5-1.7-4-2.1-5.9c-1.2-6.2-2-12.5-3.7-18.6c-2.7-10.4-6.6-20.5-11.9-29.9
	C255.3,114,239.1,99.3,218.9,92c-43.3-15.7-96.6,3.3-128.1,34.6c22.3,7.8,28.5,36.6,34.3,56.5c6.1,20.9,15.2,39.4,27,57.7
	c6.5,10.2,13.6,20,21.2,29.4c1.7,2.1,8.5,7.9,8.8,10.2c0.2,1.7-4.8,7.3-5.7,8.9c-1.8,3-3.5,6-5.2,9c-5.9,11-10.6,22.8-13.1,35
	c-1.9,9.2-5.8,29,1.3,36.3c-0.7-0.4-3.1-2.1-4-2.1c-3,0.1-1.2-0.1-1.5,3.7c-0.5,5.9,1,12.5,1.3,18.5c0.5,13.6,0,27.2-1.5,40.8
	c-0.7,6.4-1.6,12.8-2.8,19.2c-1.1,6.1-3.8,13.1-4.2,19.3c-0.6,9.8,9.5,18.1,19.1,17.6c-1.5-5.3-5.4-13.6-2.4-19
	c10.7,31.3,38.6,49.1,62.2,70.1c11.7,10.4,22.8,21.5,30.6,35.2c8,13.9,10.7,28.2,12.2,44c5.9-4.5,2.3-11.6,0.9-17.8
	c-1.6-6.8-3.5-13.6-5.8-20.2c-5.2-14.7-12-28.8-17.3-43.4c-2.3-6.4-4.3-13-5.1-19.8c-0.8-7.1,0.1-12.6-2.3-19.5
	c-0.9-2.7-3.8-15.8-6.7-16.3c-3.8-0.7-10.7,10.1-12.9,12.5c0.2-0.4,0.2-0.5,0-0.2c3-8.1,6.2-15.2,13.6-20.2
	c6.7-4.6,14.9-6.5,21.8-10.9c6.5-4.2,12.1-9.6,16.8-15.8c2.8-3.6,5.2-7.6,7.7-11.4c2.3-3.6,4.9-4.6,7.5-7.9
	c-23.5-7-48.7,3.7-72.5-3.8c-10.2-3.2-19.5-8.8-27.8-15.4c-9.3-7.5-8.5-21.6-9-32.9c-1-23.6,2.7-47.2,11.1-69.3
	c7-18.2,19.6-47.9,42.9-49c-0.1-1.7-2-2-2.2-3.5c0.1,0,0.1,0,0-0.2c32.8,6.1,51.4,41.8,61.8,70.1c5.2,14.1,10.3,28.6,13.3,43.4
	c0.5,2.6,1.2,5.1,1.8,7.7c1,3.7,1.7,7.4,2.4,11.2c0.6,3.9,0.1,9.9,1.9,13.4c-2.1-4,26.8-14.4,30-15.2c12.3-3.2,25-2.5,36.9,2.1
	c-1.1-0.2-1.1-0.1,0,0.2c-24.4-3.3-47.7,4.5-67.4,18.6c3.4,1.1,8.5-4,11.5-5.5c4.4-2.2,9.1-4,13.9-5.2c6.6-1.7,19.2-4.8,24.7,0.5
	c-0.2,0-0.2,0.1,0,0.2c-5.9,1.2-12.1,0.8-18.1,2.3c-5.4,1.3-10.7,3.2-15.8,5.5c-3.5,1.6-13.2,4.8-15.4,8.2
	c-2.4,3.7-2.1,10.1-4.1,14.4c-4.8,10.7-13.1,19.5-18.2,30c-0.8,1.6-3.5,5.9-3.1,7.9c0.6,2.9,0.2,1.9,3.4,1.8c6.5-0.1,12.2-1,18.7,0
	c24.5,3.6,48.2,19.9,73.4,10.8c11.9-4.3,22.4-12.5,33.8-17.8c12.3-5.7,21-5.4,33.5-1.5c-2.9-10-9.8-15.7-16-23.5
	c-5.7-7.1-9.4-15.5-11-24.5c-3.9-21.8,1.6-46.9,7.5-67.9c9.4-33.6,29-79.7,67.2-86.8c-0.2,1.6-2.1,1.8-2.2,3.5
	c22.7,1,35.2,29.5,42.2,47.3c9.3,23.4,13.1,48.6,11.7,73.8c-0.4,6.3-0.9,12.8-2.1,19.1c-1.2,6.4-3.8,8.8-8.9,12.7
	c-8.1,6.2-17.1,11.3-27,14.2c-23.5,6.9-48.2-3.5-71.3,3.4c2.6,3.3,5.6,3.9,9.1,6.1c4.1,2.5,7.7,6,11.1,9.3
	c6.5,6.6,12.1,16.3,20,21.4c6.6,4.3,15.4-4.1,23.3-4.1c7.8,0,15.4,3.9,18.9,11c-0.2-0.1-0.2-0.1,0,0.2c-6.7-3.1-20.1-8.8-26.7-2.5
	c-6.3,6-3.6,21.8-3.3,29.5c1.1,23.5-5.4,43.3-14.1,64.7c19.3-14.8,40.6-26.8,58.5-43.3c7.5-6.9,14.4-14.6,19.7-23.4
	c1.6-2.7,8.6-22.6,10-22.5c0.7,2.6-1.2,13.1,0.1,14.2c3.4,2.7,4.2-5.3,4.4-6.9c1.3-10.5-0.2-22-3.1-32.1c0.1,0.2,0.1,0.1,0-0.2
	c7.4,9,6,22.6,6.4,33.5c12.4-19.8-1.8-42.2-7-62.2c-5-19.3-6.2-38.8-1.7-58.3c-1.7-1-3.6,0.6-5.2-0.6c1.2-0.9,4.6-2.8,5.2-4.3
	c0.7-2-1.5-7.2-1.9-9.3c-1.3-5.8-2.8-11.6-4.4-17.4c-3.4-12.2-7.2-24.4-11.4-36.4c-1-2.8-2-5.6-3-8.4c-0.4-1-3.7-7.5-3.6-8.2
	c0.4-2.7,6.4-7.6,8.2-10c7.3-9.3,14.1-19,20.4-29c11-17.5,19.4-35,25.1-54.8c5.7-19.8,11.9-48.2,33.6-56.3
	C606.5,105.7,578.6,92.5,550,88.2z"/>
<g>
	<path class="st2" d="M480.4,536.2c-8.3,10.2-18.5,19.1-29.6,26c-12.1,7.5-23.2,4.5-36.1,0.5c-12.6-3.9-25.1-10.2-38.5-10.7
		c-13.1-0.5-23.8,6.1-35.5,11c-11.1,4.7-24.9,11.2-37.2,7.6c-11.3-3.4-22.4-13.2-31-21.1c-4.2-3.9-8.2-8-11.9-12.4
		c-1.7-2-3.4-4.1-5-6.2c-1.3-1.7-4-7.7-5.7-8.3c-4.2-1.4,0.5,6.7,1.5,9.4c2.4,6.2,4.9,12.3,7.4,18.4c5.7,13.8,11.3,27.8,14.1,42.5
		c2.3,11.8,0.5,31.2,15,36.2c-1.8-4.5-5.7-10.6-4-15.7c6.2,11.4,14,23,27.2,26.7c-0.6-0.5-0.4-1.5-1-1.7c1.3,0.6,2.7,1.1,4.2,1.6
		c-5.9-5.1-13-9.1-15-17.2c3.5,0.6,7.5,5.6,10.1,7.7c4.5,3.7,9,6.5,14.3,8.9c10.2,4.6,21,7.7,32.1,9c11.5,1.3,23.2,0.5,34.5-2.2
		c8.5-2,17.3-6.6,25.6-7.8c-1.2,0.8-3.7,2.5-3.6,4.2c9.6-4.1,17.9-10.7,26.1-17c-4.7,6.8-11.9,11.3-17.3,17.5
		c17.4-2.1,24.1-17.5,30.5-31.6c0.4,7.6-3,14.1-6.9,20.3c4.6-1.7,7.4-4.8,9.4-9.2c1.7-3.6,2.2-9,7.1-4.7
		c-6.1-28.9,10.5-57.7,21.5-83.3C481.6,534.7,480.8,535.2,480.4,536.2z"/>
	<path class="st2" d="M299.2,562.7c6.5,4.3,12.9,4.8,19.9,2.1c5.6-2.2,11.1-4.5,16.6-6.8c10.4-4.5,20.5-10.2,31.7-12.7
		c1.5-0.3,2-1.1,2.4-2.6c1.4-5.8,1.6-11.5,0.9-17.4c-0.2-1.6-0.7-2.6-2.5-2.8c-22-2.4-41.7-11.4-60.6-22.3
		c-8.9-5.1-17.1-11.2-24.2-18.8c-6.1-6.6-7.2-14-4.2-22.2c1.4-3.9,3.1-7.6,5.2-11.3c5.1-9.1,11.6-17.3,15.9-26.8
		c1.6-3.5-11.9,8-17.9,18.1c-8.9,15-20.7,26.8-37.2,33.3c-1.7,0.7-3.3,1.7-5.1,2.3c-2.6,0.9-3.1,2.1-1.9,4.7
		c3.1,6.9,6,13.9,8.7,20.9C257.3,527.3,275.6,547.2,299.2,562.7z"/>
	<path class="st2" d="M486.7,470.2c-5.3,1.3-6,1.2-10-1.9c-6.8-5.1-12.2-11.6-17.8-17.8c-1.9-2-3.6-4.2-6.6-5.4
		c0.1,0.8,0.1,1.4,0.3,1.9c6.1,11.5,3.1,21.7-4.5,31.3c-10.5,13.4-24.1,22.9-38.7,31.2c-10.9,6.2-22.4,11.2-35.1,13.5
		c3.1,6.6,2,12.9,0,19.1c-0.6,1.8-1,2.8,1.6,3c9.6,0.7,18.7,3.7,27.7,6.8c9.3,3.2,18.4,7,27.9,9.4c4.3,1.1,8,0.5,11.8-1.8
		c11-6.7,21.1-14.7,29.4-24.6c5.8-6.9,10.5-14.3,11.5-23.9C485.7,497.5,482.6,483.7,486.7,470.2z"/>
</g>
<g>
	<path class="st3" d="M446.2,460.9c-5.4-2.9-11.1-3.5-17-2.5c-6.7,1.2-12.9,3.7-18.9,6.7c-8.7,4.3-17.3,8.8-26,12.9
		c-8.3,3.9-17.1,5-26.3,3.4c-12.4-2.2-24.2-6.4-36.4-9.3c-10.9-2.6-21.8-4.4-33-2c-3.5,0.7-3.4,2-1.6,4.4c2.5,3.5,5.6,6.4,8.8,9.3
		c1.7,1.5,3.1,1.7,5.3,0.5c6.1-3.5,12-2.8,17.5,1.5c5.7,4.4,9.4,10.3,12.1,16.8c1.2,2.8,2.7,5,5.7,5.9c5.6,2,11.2,4.2,16.9,6.1
		c10.2,3.3,20.4,5.4,30.8,0.4c4.9-2.3,9.9-4.4,14.9-6.6c2.2-0.9,3.6-2.4,4.7-4.6c4-7.6,8.2-15,14.9-20.7c5.3-4.5,11.1-6.3,17.8-3.7
		c1.2,0.5,2.3,1.1,3.4-0.3c3.3-4.3,6.7-8.5,8.3-13.9C448.8,463,448.1,461.9,446.2,460.9z"/>
	<path class="st3" d="M301.7,487.7c4.4,7.1,8.9,1.8,13.3,0.4C309.5,485,307.4,485,301.7,487.7z"/>
	<path class="st3" d="M428.9,483.3c-1,1,1.3,2.7,1.5,4.8c1.9-1.9,4.2-3,5.3-5.5C433,482.2,430.4,481.6,428.9,483.3z"/>
</g>
<g>
	<g>
		<path class="st4" d="M298.2,386.6c-1.3-18.2-4.6-36.5-10.1-53.7c-6.5-20.2-16.7-40.8-32.4-55.4c-7.4-6.8-16.7-13-27.2-11.3
			c-9.9,1.6-17.8,9.4-23.6,17.1c-12.5,16.6-17.6,38.7-20.4,58.8c-1.6,11.7-2.2,23.5-1.7,35.4c0.2,4-0.3,12,1.5,16.6
			c-1.3,4.5,5.9,9.5,9,11.7c3,4.6,30.1,14.4,43.6,14.4c14.7,0,30.5-2.1,45,0.9c3.2,0.6,6.2,2.4,9.2,1c3-1.4,5-6.3,5.9-9.3
			C299.4,404.6,298.8,395,298.2,386.6z"/>
	</g>
	<g>
		<path class="st4" d="M426.2,386.6c1.3-18.2,4.6-36.5,10.1-53.7c6.5-20.2,16.7-40.8,32.4-55.4c7.4-6.8,16.7-13,27.2-11.3
			c9.9,1.6,17.8,9.4,23.6,17.1c12.5,16.6,17.6,38.7,20.4,58.8c1.6,11.7,2.2,23.5,1.7,35.4c-0.2,4,0.3,12-1.5,16.6
			c1.3,4.5-5.9,9.5-9,11.7c-3,4.6-30.1,14.4-43.6,14.4c-14.7,0-30.5-2.1-45,0.9c-3.2,0.6-6.2,2.4-9.2,1c-3-1.4-5-6.3-5.9-9.3
			C425,404.6,425.6,395,426.2,386.6z"/>
	</g>
</g>
<g>
	<g>
		<path class="st5" d="M170.4,280.6c-0.1-2.9-22.5-29.3-25.8-28.4c-15.5,4.2-28.9,11.9-39.5,24.1c-1.1,1.3-1.9,3.2-4.5,3.1
			c8.7-18.8,25.1-26.9,43.6-32.6c-1.6-2.3-3.5-4.4-4.6-6.8c-2-4.4-5.4-5.5-9.9-5.7c-15.9-0.4-31.2,2.1-46.1,7.7
			c-1.1,0.4-2.1,1.2-3.9,0.6c3.3-3.2,7-4.7,10.5-6.3c13.7-6.1,28.1-7.9,43.2-6.3c-1.9-4.8-3.6-9.1-5.2-13.5c-0.6-1.5-1.8-2.1-3-2.8
			c-9.4-4.6-19.2-8-29.5-10c-7.4-1.4-14.8-1.3-22.2-0.8c18-8.1,34.7-2.1,51.7,5.1c-3.6-12.8-7-25.1-10.6-37.5
			c-1.3-4.5-3-8.9-4.6-13.3c-6-16.4-17.7-25.6-20.3-25.2c-2.2,0.3-4.4,1.3-6.5,2.8c-0.1,0.1-0.2,0.1-0.3,0.2
			c-13.1,9.5-25.6,39.2-26.9,59.7c6.4-6,6.4-6,10.8-6.9c-8,14.3-13.2,28.9-9.7,45.2c1.6-2.9,2.6-6.1,4.7-8.9
			c1.1,1.3,0.5,2.4,0.3,3.5c-1,8.8-2,17.6-0.2,26.4c1.5,6.9,3.4,13.7,8.6,19c-0.1-2.2-1.4-4.3-0.9-6.6c0-0.4,0.1-0.8,0.1-1.3
			c-0.1-0.2-0.2-0.5-0.3-0.7c0.8-0.3,0.6,0.2,0.5,0.6c0.2,0.4,0.4,0.7,0.5,1.1c3.5,6.5,7.1,12.9,12.6,18.1
			c17.4,16.4,38.8,23.2,62.1,25.4c2.3,0.2,10.3,0.5,12,0l0,0C160,296.4,170.6,283.7,170.4,280.6L170.4,280.6z"/>
	</g>
	<path class="st5" d="M548.5,280.6c0.1-2.9,22.5-29.3,25.8-28.4c15.5,4.2,28.9,11.9,39.5,24.1c1.1,1.3,1.9,3.2,4.5,3.1
		c-8.7-18.8-25.1-26.9-43.6-32.6c1.6-2.3,3.5-4.4,4.6-6.8c2-4.4,5.4-5.5,9.9-5.7c15.9-0.4,31.2,2.1,46.1,7.7
		c1.1,0.4,2.1,1.2,3.9,0.6c-3.3-3.2-7-4.7-10.5-6.3c-13.7-6.1-28.1-7.9-43.2-6.3c1.9-4.8,3.6-9.1,5.2-13.5c0.6-1.5,1.8-2.1,3-2.8
		c9.4-4.6,19.2-8,29.5-10c7.4-1.4,14.8-1.3,22.2-0.8c-18-8.1-34.7-2.1-51.7,5.1c3.6-12.8,7-25.1,10.6-37.5c1.3-4.5,3-8.9,4.6-13.3
		c6-16.4,17.7-25.6,20.3-25.2c2.2,0.3,4.4,1.3,6.5,2.8c0.1,0.1,0.2,0.1,0.3,0.2c13.1,9.5,25.6,39.2,26.9,59.7c-6.4-6-6.4-6-10.8-6.9
		c8,14.3,13.2,28.9,9.7,45.2c-1.6-2.9-2.6-6.1-4.7-8.9c-1.1,1.3-0.5,2.4-0.3,3.5c1,8.8,2,17.6,0.2,26.4c-1.5,6.9-3.4,13.7-8.6,19
		c0.1-2.2,1.4-4.3,0.9-6.6c0-0.4-0.1-0.8-0.1-1.3c0.1-0.2,0.2-0.5,0.3-0.7c-0.8-0.3-0.6,0.2-0.5,0.6c-0.2,0.4-0.4,0.7-0.5,1.1
		c-3.5,6.5-7.1,12.9-12.6,18.1c-17.4,16.4-38.8,23.2-62.1,25.4c-2.3,0.2-10.3,0.5-12,0l0,0C558.9,296.4,548.3,283.7,548.5,280.6
		L548.5,280.6z"/>
</g>
</svg>
