<?xml version="1.0"?>
<svg xmlns="http://www.w3.org/2000/svg" height="512px" viewBox="0 1 511 511.99975" width="512px" class=""><g><path d="m502.5 433h-143c-.628906 0-1.257812.058594-1.875.175781l-58.988281 11.246094c2.476562-5.644531 3.863281-11.875 3.863281-18.421875v-12.195312c11.582031-3.019532 20.34375-12.140626 22.882812-23.851563 5.128907-23.644531 22.847657-42.171875 46.242188-48.34375l23.363281-6.164063c45.019531-11.875 85.382813-38.792968 113.644531-75.796874 4.730469-6.1875 5.152344-14.480469 1.074219-21.117188s-11.664062-10.007812-19.324219-8.589844l-84.882812 15.734375c5.152344-10.070312 12.816406-22.789062 22.644531-32.714843 1.863281-1.878907 4.097657-4.011719 6.464844-6.273438 12.585937-12.015625 29.824219-28.472656 41.09375-52.558594 13.5-28.851562 14.449219-61.273437 2.828125-96.367187-1.355469-4.09375-5.183594-6.855469-9.492188-6.855469-55.351562 0-102.457031 44.304688-124.503906 69.128906-3.5-12.957031-8.195312-25.585937-14.066406-37.625-14.054688-28.832031-34.84375-54.515625-60.113281-74.269531l-7.699219-6.019531c-3.617188-2.828125-8.699219-2.828125-12.316406 0l-7.699219 6.019531c-25.269531 19.753906-46.058594 45.4375-60.113281 74.269531-5.871094 12.039063-10.566406 24.667969-14.066406 37.625-22.046876-24.824218-69.152344-69.132812-124.503907-69.132812-4.3125 0-8.136719 2.765625-9.492187 6.855468-11.625 35.097657-10.671875 67.519532 2.828125 96.367188 11.269531 24.085938 28.507812 40.542969 41.09375 52.5625 2.367187 2.257812 4.601562 4.394531 6.464843 6.273438 9.828126 9.925781 17.492188 22.644531 22.644532 32.710937l-84.882813-15.730469c-7.65625-1.421875-15.246093 1.949219-19.324219 8.589844-4.078124 6.636719-3.65625 14.925781 1.074219 21.117188 28.265625 37 68.625 63.921874 113.644531 75.796874l23.363282 6.164063c23.394531 6.171875 41.113281 24.695313 46.238281 48.34375 2.542969 11.710937 11.304687 20.828125 22.886719 23.847656v12.199219c0 9.644531 2.988281 18.597656 8.082031 26h-34.414063c-5.523437 0-10 4.476562-10 10s4.476563 10 10 10h75.671876c.628906 0 1.253906-.058594 1.875-.175781l2.996093-.574219c.449219-.082031.902344-.160156 1.347657-.253906l94.386718-17.996094h132.058594v20h-133c-.628906 0-1.257812.058594-1.875.175781l-98.734375 18.824219h-181.226563c-5.511718 0-10-4.484375-10-10s4.488282-10 10-10h26.5c5.523438 0 10-4.476562 10-10s-4.476562-10-10-10h-26.5c-16.539062 0-30 13.457031-30 30s13.460938 30 30 30h182.171876c.628906 0 1.257812-.058594 1.875-.175781l98.730468-18.824219h142.058594c5.519531 0 10-4.476562 10-10v-40c0-5.523438-4.480469-10-10-10zm-11.886719-182.761719c-25.457031 32.082031-61.097656 55.414063-100.726562 65.871094l-23.363281 6.164063c-30.703126 8.097656-53.957032 32.410156-60.683594 63.441406-.9375 4.3125-4.175782 7.667968-8.453125 8.757812l-6.003907 1.527344h-5.882812v-7.269531c0-38.308594 19.261719-73.5 51.527344-94.144531l12.195312-7.800782c15.09375-9.65625 31.679688-16.210937 49.296875-19.476562zm-28.878906-179.019531c18.0625 64.667969-18.671875 99.746094-40.9375 121.003906-2.46875 2.355469-4.804687 4.585938-6.863281 6.667969-17.496094 17.667969-28.652344 41.738281-32.890625 51.964844-15.046875 4.203125-29.328125 10.589843-42.597657 19.082031l-12.195312 7.800781c-3.085938 1.972657-6.058594 4.070313-8.9375 6.261719 3.734375-8.410156 7.875-16.640625 12.414062-24.609375 14.542969-25.511719 22.230469-54.515625 22.230469-83.878906 0-10.183594-.753906-20.378907-2.226562-30.476563 10.621093-13.539062 57.347656-69.125 112.003906-73.816406zm-206.773437-47.324219 1.539062-1.203125 1.539062 1.207032c46.976563 36.722656 73.917969 91.984374 73.917969 151.613281 0 25.898437-6.777343 51.476562-19.601562 73.976562-8.421875 14.769531-15.601563 30.371094-21.339844 46.371094l-12.46875 34.765625c-.199219.554688-.335937 1.113281-.433594 1.675781-8.195312 17.328125-12.613281 36.519531-12.613281 56.429688v7.269531h-18v-7.269531c0-19.910157-4.417969-39.101563-12.613281-56.429688-.097657-.5625-.234375-1.121093-.433594-1.675781l-12.472656-34.765625c-5.738281-16-12.917969-31.601563-21.335938-46.371094-12.824219-22.5-19.605469-48.078125-19.605469-73.976562 0-59.628907 26.941407-114.890625 73.921876-151.617188zm-162.761719 168.328125c-22.265625-21.257812-59-56.332031-40.9375-121 54.539062 4.695313 101.359375 60.28125 112.003906 73.820313-1.472656 10.097656-2.226563 20.289062-2.226563 30.46875 0 29.363281 7.6875 58.371093 22.230469 83.882812 4.539063 7.964844 8.679688 16.199219 12.414063 24.605469-2.878906-2.191406-5.851563-4.289062-8.933594-6.261719l-12.199219-7.800781c-13.269531-8.492188-27.550781-14.878906-42.597656-19.082031-4.238281-10.226563-15.394531-34.296875-32.890625-51.964844-2.058594-2.082031-4.394531-4.308594-6.863281-6.667969zm114.960937 193.492188c-6.730468-31.035156-29.984375-55.34375-60.6875-63.445313l-23.363281-6.160156c-39.628906-10.457031-75.269531-33.792969-100.726563-65.871094l92.09375 17.070313c17.617188 3.265625 34.203126 9.816406 49.296876 19.472656l12.195312 7.804688c32.265625 20.644531 51.53125 55.835937 51.53125 94.140624v7.273438h-5.886719l-6.003906-1.527344c-4.277344-1.089844-7.515625-4.445312-8.449219-8.757812zm23.339844 40.285156v-10h52v10c0 12.4375-8.78125 22.859375-20.472656 25.402344l-1.34375.257812c-1.363282.21875-2.761719.339844-4.1875.339844-14.335938 0-25.996094-11.664062-25.996094-26zm0 0" data-original="#000000" class="active-path" data-old_color="#000000" fill="#FFFFFF"/><path d="m151.238281 469.070312c1.859375-1.859374 2.929688-4.441406 2.929688-7.070312s-1.070313-5.210938-2.929688-7.070312c-1.859375-1.859376-4.441406-2.929688-7.070312-2.929688-2.640625 0-5.210938 1.070312-7.070313 2.929688-1.871094 1.859374-2.929687 4.441406-2.929687 7.070312s1.058593 5.210938 2.929687 7.070312c1.859375 1.859376 4.429688 2.929688 7.070313 2.929688 2.628906 0 5.210937-1.070312 7.070312-2.929688zm0 0" data-original="#000000" class="active-path" data-old_color="#000000" fill="#FFFFFF"/></g> </svg>
